<svg id="close" xmlns="http://www.w3.org/2000/svg" width="16" height="16" viewBox="0 0 16 16">
  <path id="Path_4146" data-name="Path 4146" d="M0,0H16V16H0Z" fill="none"/>
  <path id="Path_4147" data-name="Path 4147" d="M17.141,5.683a.906.906,0,0,0-1.283,0l-4.451,4.441L6.957,5.674A.907.907,0,0,0,5.674,6.957l4.451,4.451L5.674,15.858a.907.907,0,1,0,1.283,1.283l4.451-4.451,4.451,4.451a.907.907,0,1,0,1.283-1.283l-4.451-4.451,4.451-4.451A.912.912,0,0,0,17.141,5.683Z" transform="translate(-3.407 -3.407)" fill="#989898"/>
</svg>
