<svg xmlns="http://www.w3.org/2000/svg" width="16" height="16" viewBox="0 0 16 16">
  <g id="delete" transform="translate(0 -1)">
    <path id="Path_40923" data-name="Path 40923" d="M0,0H16V16H0Z" transform="translate(0 1)" fill="none"/>
    <path id="Path_40924" data-name="Path 40924" d="M5.714,15.444A1.5,1.5,0,0,0,7.143,17h5.714a1.5,1.5,0,0,0,1.429-1.556V7.667a1.5,1.5,0,0,0-1.429-1.556H7.143A1.5,1.5,0,0,0,5.714,7.667ZM7.857,7.667h4.286a.75.75,0,0,1,.714.778v6.222a.75.75,0,0,1-.714.778H7.857a.75.75,0,0,1-.714-.778V8.444A.75.75,0,0,1,7.857,7.667ZM12.5,3.778l-.507-.552a.692.692,0,0,0-.5-.226H8.507a.692.692,0,0,0-.5.226L7.5,3.778H5.714A.75.75,0,0,0,5,4.556a.75.75,0,0,0,.714.778h8.571A.75.75,0,0,0,15,4.556a.75.75,0,0,0-.714-.778Z" transform="translate(-2 -1)" fill="#989898"/>
  </g>
</svg>
